{
	"asset":{
		"generator":"Khronos glTF Blender I/O v3.6.27",
		"version":"2.0"
	},
	"extensionsUsed":[
		"KHR_materials_emissive_strength"
	],
	"scene":0,
	"scenes":[
		{
			"name":"Scene",
			"nodes":[
				0,
				1
			]
		}
	],
	"nodes":[
		{
			"mesh":0,
			"name":"Circle"
		},
		{
			"mesh":1,
			"name":"Layer_001.001",
			"scale":[
				0.8944627642631531,
				0.8944627642631531,
				0.8944627642631531
			],
			"translation":[
				0.04496443271636963,
				0.933495819568634,
				0.026826176792383194
			]
		}
	],
	"animations":[
		{
			"channels":[
				{
					"sampler":0,
					"target":{
						"node":1,
						"path":"translation"
					}
				},
				{
					"sampler":1,
					"target":{
						"node":1,
						"path":"rotation"
					}
				}
			],
			"name":"Layer_001.001Action",
			"samplers":[
				{
					"input":14,
					"interpolation":"LINEAR",
					"output":15
				},
				{
					"input":14,
					"interpolation":"LINEAR",
					"output":16
				}
			]
		}
	],
	"materials":[
		{
			"doubleSided":true,
			"name":"Material.001",
			"pbrMetallicRoughness":{
				"baseColorFactor":[
					0.011087574996054173,
					0.011087574996054173,
					0.011087574996054173,
					1
				],
				"metallicFactor":0,
				"roughnessFactor":0.5
			}
		},
		{
			"doubleSided":true,
			"emissiveFactor":[
				0,
				0.3178803622722626,
				1
			],
			"extensions":{
				"KHR_materials_emissive_strength":{
					"emissiveStrength":4.599999904632568
				}
			},
			"name":"Material.002",
			"pbrMetallicRoughness":{
				"baseColorFactor":[
					0,
					0,
					0,
					1
				]
			}
		},
		{
			"doubleSided":true,
			"name":"Material.004",
			"pbrMetallicRoughness":{
				"baseColorFactor":[
					0.8069524168968201,
					0.20507849752902985,
					0.004024797584861517,
					1
				],
				"metallicFactor":0,
				"roughnessFactor":0.5
			}
		},
		{
			"doubleSided":true,
			"name":"Material.005",
			"pbrMetallicRoughness":{
				"baseColorFactor":[
					0.019382137805223465,
					0.0953073725104332,
					0.24228106439113617,
					1
				],
				"metallicFactor":0,
				"roughnessFactor":0.5
			}
		}
	],
	"meshes":[
		{
			"name":"Circle",
			"primitives":[
				{
					"attributes":{
						"POSITION":0,
						"NORMAL":1,
						"TEXCOORD_0":2
					},
					"indices":3,
					"material":0
				},
				{
					"attributes":{
						"POSITION":4,
						"NORMAL":5,
						"TEXCOORD_0":6
					},
					"indices":7,
					"material":1
				}
			]
		},
		{
			"name":"Mesh",
			"primitives":[
				{
					"attributes":{
						"POSITION":8,
						"NORMAL":9
					},
					"indices":10,
					"material":2
				},
				{
					"attributes":{
						"POSITION":11,
						"NORMAL":12
					},
					"indices":13,
					"material":3
				}
			]
		}
	],
	"accessors":[
		{
			"bufferView":0,
			"componentType":5126,
			"count":896,
			"max":[
				0.9562265276908875,
				0.2911989092826843,
				0.9562265276908875
			],
			"min":[
				-0.9562265276908875,
				0.002089753746986389,
				-0.9562265276908875
			],
			"type":"VEC3"
		},
		{
			"bufferView":1,
			"componentType":5126,
			"count":896,
			"type":"VEC3"
		},
		{
			"bufferView":2,
			"componentType":5126,
			"count":896,
			"type":"VEC2"
		},
		{
			"bufferView":3,
			"componentType":5123,
			"count":2676,
			"type":"SCALAR"
		},
		{
			"bufferView":4,
			"componentType":5126,
			"count":480,
			"max":[
				0.931115984916687,
				0.2911989092826843,
				0.931115984916687
			],
			"min":[
				-0.931115984916687,
				0.07882295548915863,
				-0.931115984916687
			],
			"type":"VEC3"
		},
		{
			"bufferView":5,
			"componentType":5126,
			"count":480,
			"type":"VEC3"
		},
		{
			"bufferView":6,
			"componentType":5126,
			"count":480,
			"type":"VEC2"
		},
		{
			"bufferView":7,
			"componentType":5123,
			"count":1728,
			"type":"SCALAR"
		},
		{
			"bufferView":8,
			"componentType":5126,
			"count":1340,
			"max":[
				0.7277407646179199,
				0.749629020690918,
				2.6349880499765277e-08
			],
			"min":[
				-0.9374146461486816,
				-0.602814257144928,
				-0.12144793570041656
			],
			"type":"VEC3"
		},
		{
			"bufferView":9,
			"componentType":5126,
			"count":1340,
			"type":"VEC3"
		},
		{
			"bufferView":10,
			"componentType":5123,
			"count":3948,
			"type":"SCALAR"
		},
		{
			"bufferView":11,
			"componentType":5126,
			"count":300,
			"max":[
				0.3803398609161377,
				0.18335223197937012,
				9.838501568992797e-09
			],
			"min":[
				-0.06947731971740723,
				-0.22507768869400024,
				-0.12144791334867477
			],
			"type":"VEC3"
		},
		{
			"bufferView":12,
			"componentType":5126,
			"count":300,
			"type":"VEC3"
		},
		{
			"bufferView":13,
			"componentType":5123,
			"count":876,
			"type":"SCALAR"
		},
		{
			"bufferView":14,
			"componentType":5126,
			"count":50,
			"max":[
				2.0833333333333335
			],
			"min":[
				0.041666666666666664
			],
			"type":"SCALAR"
		},
		{
			"bufferView":15,
			"componentType":5126,
			"count":50,
			"type":"VEC3"
		},
		{
			"bufferView":16,
			"componentType":5126,
			"count":50,
			"type":"VEC4"
		}
	],
	"bufferViews":[
		{
			"buffer":0,
			"byteLength":10752,
			"byteOffset":0,
			"target":34962
		},
		{
			"buffer":0,
			"byteLength":10752,
			"byteOffset":10752,
			"target":34962
		},
		{
			"buffer":0,
			"byteLength":7168,
			"byteOffset":21504,
			"target":34962
		},
		{
			"buffer":0,
			"byteLength":5352,
			"byteOffset":28672,
			"target":34963
		},
		{
			"buffer":0,
			"byteLength":5760,
			"byteOffset":34024,
			"target":34962
		},
		{
			"buffer":0,
			"byteLength":5760,
			"byteOffset":39784,
			"target":34962
		},
		{
			"buffer":0,
			"byteLength":3840,
			"byteOffset":45544,
			"target":34962
		},
		{
			"buffer":0,
			"byteLength":3456,
			"byteOffset":49384,
			"target":34963
		},
		{
			"buffer":0,
			"byteLength":16080,
			"byteOffset":52840,
			"target":34962
		},
		{
			"buffer":0,
			"byteLength":16080,
			"byteOffset":68920,
			"target":34962
		},
		{
			"buffer":0,
			"byteLength":7896,
			"byteOffset":85000,
			"target":34963
		},
		{
			"buffer":0,
			"byteLength":3600,
			"byteOffset":92896,
			"target":34962
		},
		{
			"buffer":0,
			"byteLength":3600,
			"byteOffset":96496,
			"target":34962
		},
		{
			"buffer":0,
			"byteLength":1752,
			"byteOffset":100096,
			"target":34963
		},
		{
			"buffer":0,
			"byteLength":200,
			"byteOffset":101848
		},
		{
			"buffer":0,
			"byteLength":600,
			"byteOffset":102048
		},
		{
			"buffer":0,
			"byteLength":800,
			"byteOffset":102648
		}
	],
	"buffers":[
		{
			"byteLength":103448,
			"uri":"data:application/octet-stream;base64,"
		}
	]
}
