{
	"asset":{
		"generator":"Khronos glTF Blender I/O v3.6.27",
		"version":"2.0"
	},
	"extensionsUsed":[
		"KHR_materials_emissive_strength"
	],
	"scene":0,
	"scenes":[
		{
			"name":"Scene",
			"nodes":[
				0,
				1,
				2,
				3,
				4
			]
		}
	],
	"nodes":[
		{
			"mesh":0,
			"name":"Circle"
		},
		{
			"mesh":1,
			"name":"Layer_001.001",
			"rotation":[
				0,
				0.7818315029144287,
				0,
				0.6234897971153259
			],
			"scale":[
				0.8944627642631531,
				0.8944627642631531,
				0.8944627642631531
			],
			"translation":[
				0.04496443271636963,
				1.0575039386749268,
				0.026826176792383194
			]
		},
		{
			"mesh":2,
			"name":"Curve",
			"rotation":[
				0.04825464263558388,
				0.7054583430290222,
				-0.7054583430290222,
				0.04825464263558388
			],
			"scale":[
				103.59210968017578,
				103.59210968017578,
				103.59211730957031
			],
			"translation":[
				-0.010292835533618927,
				0.8679025769233704,
				0
			]
		},
		{
			"mesh":3,
			"name":"path0_fill",
			"rotation":[
				0,
				-0.19115865230560303,
				0,
				0.981559157371521
			],
			"translation":[
				0.04496443271636963,
				0.9447594285011292,
				0.026826176792383194
			]
		},
		{
			"mesh":4,
			"name":"Curve.001",
			"scale":[
				7.962096214294434,
				7.962096214294434,
				7.962096214294434
			],
			"translation":[
				0.04496443271636963,
				0.933495819568634,
				0.026826176792383194
			]
		}
	],
	"animations":[
		{
			"channels":[
				{
					"sampler":0,
					"target":{
						"node":1,
						"path":"translation"
					}
				},
				{
					"sampler":1,
					"target":{
						"node":1,
						"path":"rotation"
					}
				}
			],
			"name":"Layer_001.001Action",
			"samplers":[
				{
					"input":46,
					"interpolation":"STEP",
					"output":47
				},
				{
					"input":46,
					"interpolation":"STEP",
					"output":48
				}
			]
		},
		{
			"channels":[
				{
					"sampler":0,
					"target":{
						"node":2,
						"path":"translation"
					}
				},
				{
					"sampler":1,
					"target":{
						"node":2,
						"path":"rotation"
					}
				}
			],
			"name":"CurveAction",
			"samplers":[
				{
					"input":46,
					"interpolation":"STEP",
					"output":49
				},
				{
					"input":46,
					"interpolation":"STEP",
					"output":50
				}
			]
		},
		{
			"channels":[
				{
					"sampler":0,
					"target":{
						"node":3,
						"path":"translation"
					}
				},
				{
					"sampler":1,
					"target":{
						"node":3,
						"path":"rotation"
					}
				}
			],
			"name":"path0_fillAction.001",
			"samplers":[
				{
					"input":46,
					"interpolation":"STEP",
					"output":51
				},
				{
					"input":46,
					"interpolation":"STEP",
					"output":52
				}
			]
		},
		{
			"channels":[
				{
					"sampler":0,
					"target":{
						"node":4,
						"path":"translation"
					}
				},
				{
					"sampler":1,
					"target":{
						"node":4,
						"path":"rotation"
					}
				}
			],
			"name":"Curve.001Action",
			"samplers":[
				{
					"input":53,
					"interpolation":"LINEAR",
					"output":54
				},
				{
					"input":53,
					"interpolation":"LINEAR",
					"output":55
				}
			]
		}
	],
	"materials":[
		{
			"doubleSided":true,
			"name":"Material.001",
			"pbrMetallicRoughness":{
				"baseColorFactor":[
					0.011087574996054173,
					0.011087574996054173,
					0.011087574996054173,
					1
				],
				"metallicFactor":0,
				"roughnessFactor":0.5
			}
		},
		{
			"doubleSided":true,
			"emissiveFactor":[
				0,
				0.3178803622722626,
				1
			],
			"extensions":{
				"KHR_materials_emissive_strength":{
					"emissiveStrength":4.599999904632568
				}
			},
			"name":"Material.002",
			"pbrMetallicRoughness":{
				"baseColorFactor":[
					0,
					0,
					0,
					1
				]
			}
		},
		{
			"doubleSided":true,
			"name":"Material.004",
			"pbrMetallicRoughness":{
				"baseColorFactor":[
					0.8069524168968201,
					0.20507849752902985,
					0.004024797584861517,
					1
				],
				"metallicFactor":0,
				"roughnessFactor":0.5
			}
		},
		{
			"doubleSided":true,
			"name":"Material.005",
			"pbrMetallicRoughness":{
				"baseColorFactor":[
					0.019382137805223465,
					0.0953073725104332,
					0.24228106439113617,
					1
				],
				"metallicFactor":0,
				"roughnessFactor":0.5
			}
		},
		{
			"doubleSided":true,
			"name":"SVGMat",
			"pbrMetallicRoughness":{
				"baseColorFactor":[
					0.039546236395835876,
					0.5088813304901123,
					0.9386857151985168,
					1
				],
				"metallicFactor":0,
				"roughnessFactor":0.4000000059604645
			}
		},
		{
			"doubleSided":true,
			"name":"Material.006",
			"pbrMetallicRoughness":{
				"baseColorFactor":[
					1,
					0.04373478516936302,
					0,
					1
				],
				"metallicFactor":0,
				"roughnessFactor":0.5
			}
		},
		{
			"doubleSided":true,
			"name":"Material.007",
			"pbrMetallicRoughness":{
				"baseColorFactor":[
					1,
					0.09648074209690094,
					0.03805901110172272,
					1
				],
				"metallicFactor":0,
				"roughnessFactor":0.5
			}
		},
		{
			"doubleSided":true,
			"name":"Material.008",
			"pbrMetallicRoughness":{
				"baseColorFactor":[
					0.42326706647872925,
					0.07421308755874634,
					1,
					1
				],
				"metallicFactor":0,
				"roughnessFactor":0.5
			}
		},
		{
			"doubleSided":true,
			"name":"Material.009",
			"pbrMetallicRoughness":{
				"baseColorFactor":[
					0,
					0.5149170160293579,
					1,
					1
				],
				"metallicFactor":0,
				"roughnessFactor":0.5
			}
		},
		{
			"doubleSided":true,
			"name":"Material.010",
			"pbrMetallicRoughness":{
				"baseColorFactor":[
					0,
					0.6583746075630188,
					0.1980694681406021,
					1
				],
				"metallicFactor":0,
				"roughnessFactor":0.5
			}
		},
		{
			"doubleSided":true,
			"name":"Material.011",
			"pbrMetallicRoughness":{
				"baseColorFactor":[
					0.09305881708860397,
					0.04666497930884361,
					0.2015562504529953,
					1
				],
				"metallicFactor":0,
				"roughnessFactor":0.5
			}
		}
	],
	"meshes":[
		{
			"name":"Circle",
			"primitives":[
				{
					"attributes":{
						"POSITION":0,
						"NORMAL":1,
						"TEXCOORD_0":2
					},
					"indices":3,
					"material":0
				},
				{
					"attributes":{
						"POSITION":4,
						"NORMAL":5,
						"TEXCOORD_0":6
					},
					"indices":7,
					"material":1
				}
			]
		},
		{
			"name":"Mesh",
			"primitives":[
				{
					"attributes":{
						"POSITION":8,
						"NORMAL":9
					},
					"indices":10,
					"material":2
				},
				{
					"attributes":{
						"POSITION":11,
						"NORMAL":12
					},
					"indices":13,
					"material":3
				}
			]
		},
		{
			"name":"Curve",
			"primitives":[
				{
					"attributes":{
						"POSITION":14,
						"NORMAL":15,
						"TEXCOORD_0":16
					},
					"indices":17,
					"material":4
				}
			]
		},
		{
			"name":"path0_fill",
			"primitives":[
				{
					"attributes":{
						"POSITION":18,
						"NORMAL":19,
						"TEXCOORD_0":20
					},
					"indices":21,
					"material":5
				},
				{
					"attributes":{
						"POSITION":22,
						"NORMAL":23,
						"TEXCOORD_0":24
					},
					"indices":25,
					"material":6
				},
				{
					"attributes":{
						"POSITION":26,
						"NORMAL":27,
						"TEXCOORD_0":28
					},
					"indices":29,
					"material":7
				},
				{
					"attributes":{
						"POSITION":30,
						"NORMAL":31,
						"TEXCOORD_0":32
					},
					"indices":33,
					"material":8
				},
				{
					"attributes":{
						"POSITION":34,
						"NORMAL":35,
						"TEXCOORD_0":36
					},
					"indices":37,
					"material":9
				}
			]
		},
		{
			"name":"Curve.003",
			"primitives":[
				{
					"attributes":{
						"POSITION":38,
						"NORMAL":39,
						"TEXCOORD_0":40
					},
					"indices":41,
					"material":10
				},
				{
					"attributes":{
						"POSITION":42,
						"NORMAL":43,
						"TEXCOORD_0":44
					},
					"indices":45
				}
			]
		}
	],
	"accessors":[
		{
			"bufferView":0,
			"componentType":5126,
			"count":896,
			"max":[
				0.9562265276908875,
				0.2911989092826843,
				0.9562265276908875
			],
			"min":[
				-0.9562265276908875,
				0.002089753746986389,
				-0.9562265276908875
			],
			"type":"VEC3"
		},
		{
			"bufferView":1,
			"componentType":5126,
			"count":896,
			"type":"VEC3"
		},
		{
			"bufferView":2,
			"componentType":5126,
			"count":896,
			"type":"VEC2"
		},
		{
			"bufferView":3,
			"componentType":5123,
			"count":2676,
			"type":"SCALAR"
		},
		{
			"bufferView":4,
			"componentType":5126,
			"count":480,
			"max":[
				0.931115984916687,
				0.2911989092826843,
				0.931115984916687
			],
			"min":[
				-0.931115984916687,
				0.07882295548915863,
				-0.931115984916687
			],
			"type":"VEC3"
		},
		{
			"bufferView":5,
			"componentType":5126,
			"count":480,
			"type":"VEC3"
		},
		{
			"bufferView":6,
			"componentType":5126,
			"count":480,
			"type":"VEC2"
		},
		{
			"bufferView":7,
			"componentType":5123,
			"count":1728,
			"type":"SCALAR"
		},
		{
			"bufferView":8,
			"componentType":5126,
			"count":1340,
			"max":[
				0.7277407646179199,
				0.749629020690918,
				2.6349880499765277e-08
			],
			"min":[
				-0.9374146461486816,
				-0.602814257144928,
				-0.12144793570041656
			],
			"type":"VEC3"
		},
		{
			"bufferView":9,
			"componentType":5126,
			"count":1340,
			"type":"VEC3"
		},
		{
			"bufferView":10,
			"componentType":5123,
			"count":3948,
			"type":"SCALAR"
		},
		{
			"bufferView":11,
			"componentType":5126,
			"count":300,
			"max":[
				0.3803398609161377,
				0.18335223197937012,
				9.838501568992797e-09
			],
			"min":[
				-0.06947731971740723,
				-0.22507768869400024,
				-0.12144791334867477
			],
			"type":"VEC3"
		},
		{
			"bufferView":12,
			"componentType":5126,
			"count":300,
			"type":"VEC3"
		},
		{
			"bufferView":13,
			"componentType":5123,
			"count":876,
			"type":"SCALAR"
		},
		{
			"bufferView":14,
			"componentType":5126,
			"count":776,
			"max":[
				0.0076201665215194225,
				0,
				0.004571121651679277
			],
			"min":[
				-0.007620145101100206,
				-0.0008608904317952693,
				-0.004571134690195322
			],
			"type":"VEC3"
		},
		{
			"bufferView":15,
			"componentType":5126,
			"count":776,
			"type":"VEC3"
		},
		{
			"bufferView":16,
			"componentType":5126,
			"count":776,
			"type":"VEC2"
		},
		{
			"bufferView":17,
			"componentType":5123,
			"count":2280,
			"type":"SCALAR"
		},
		{
			"bufferView":18,
			"componentType":5126,
			"count":156,
			"max":[
				0.015663612633943558,
				0.40706944465637207,
				-2.9403317114429228e-08
			],
			"min":[
				-0.29364630579948425,
				0.09782485663890839,
				-0.09106507897377014
			],
			"type":"VEC3"
		},
		{
			"bufferView":19,
			"componentType":5126,
			"count":156,
			"type":"VEC3"
		},
		{
			"bufferView":20,
			"componentType":5126,
			"count":156,
			"type":"VEC2"
		},
		{
			"bufferView":21,
			"componentType":5123,
			"count":444,
			"type":"SCALAR"
		},
		{
			"bufferView":22,
			"componentType":5126,
			"count":149,
			"max":[
				0.32497355341911316,
				0.40706944465637207,
				-2.9403317114429228e-08
			],
			"min":[
				0.015663612633943558,
				0.09782485663890839,
				-0.09106507897377014
			],
			"type":"VEC3"
		},
		{
			"bufferView":23,
			"componentType":5126,
			"count":149,
			"type":"VEC3"
		},
		{
			"bufferView":24,
			"componentType":5126,
			"count":149,
			"type":"VEC2"
		},
		{
			"bufferView":25,
			"componentType":5123,
			"count":444,
			"type":"SCALAR"
		},
		{
			"bufferView":26,
			"componentType":5126,
			"count":156,
			"max":[
				0.015663612633943558,
				0.09782486408948898,
				-4.2920831333503884e-08
			],
			"min":[
				-0.29364630579948425,
				-0.21141976118087769,
				-0.09106509387493134
			],
			"type":"VEC3"
		},
		{
			"bufferView":27,
			"componentType":5126,
			"count":156,
			"type":"VEC3"
		},
		{
			"bufferView":28,
			"componentType":5126,
			"count":156,
			"type":"VEC2"
		},
		{
			"bufferView":29,
			"componentType":5123,
			"count":444,
			"type":"SCALAR"
		},
		{
			"bufferView":30,
			"componentType":5126,
			"count":192,
			"max":[
				0.32497355341911316,
				0.09782486408948898,
				-4.2920831333503884e-08
			],
			"min":[
				0.015663612633943558,
				-0.21141976118087769,
				-0.09106509387493134
			],
			"type":"VEC3"
		},
		{
			"bufferView":31,
			"componentType":5126,
			"count":192,
			"type":"VEC3"
		},
		{
			"bufferView":32,
			"componentType":5126,
			"count":192,
			"type":"VEC2"
		},
		{
			"bufferView":33,
			"componentType":5123,
			"count":564,
			"type":"SCALAR"
		},
		{
			"bufferView":34,
			"componentType":5126,
			"count":198,
			"max":[
				0.01566365174949169,
				-0.2114197313785553,
				-5.643834199986486e-08
			],
			"min":[
				-0.29364630579948425,
				-0.520664393901825,
				-0.09106512367725372
			],
			"type":"VEC3"
		},
		{
			"bufferView":35,
			"componentType":5126,
			"count":198,
			"type":"VEC3"
		},
		{
			"bufferView":36,
			"componentType":5126,
			"count":198,
			"type":"VEC2"
		},
		{
			"bufferView":37,
			"componentType":5123,
			"count":576,
			"type":"SCALAR"
		},
		{
			"bufferView":38,
			"componentType":5126,
			"count":758,
			"max":[
				0.07224646955728531,
				0.05756237357854843,
				2.5161310812649162e-09
			],
			"min":[
				-0.07225427776575089,
				-0.057562343776226044,
				-0.014903579838573933
			],
			"type":"VEC3"
		},
		{
			"bufferView":39,
			"componentType":5126,
			"count":758,
			"type":"VEC3"
		},
		{
			"bufferView":40,
			"componentType":5126,
			"count":758,
			"type":"VEC2"
		},
		{
			"bufferView":41,
			"componentType":5123,
			"count":2292,
			"type":"SCALAR"
		},
		{
			"bufferView":42,
			"componentType":5126,
			"count":653,
			"max":[
				0.024521999061107635,
				0.030627455562353134,
				0.0036991452798247337
			],
			"min":[
				-0.022045636549592018,
				-0.030603110790252686,
				-0.01860271766781807
			],
			"type":"VEC3"
		},
		{
			"bufferView":43,
			"componentType":5126,
			"count":653,
			"type":"VEC3"
		},
		{
			"bufferView":44,
			"componentType":5126,
			"count":653,
			"type":"VEC2"
		},
		{
			"bufferView":45,
			"componentType":5123,
			"count":1944,
			"type":"SCALAR"
		},
		{
			"bufferView":46,
			"componentType":5126,
			"count":2,
			"max":[
				2.0833333333333335
			],
			"min":[
				0.041666666666666664
			],
			"type":"SCALAR"
		},
		{
			"bufferView":47,
			"componentType":5126,
			"count":2,
			"type":"VEC3"
		},
		{
			"bufferView":48,
			"componentType":5126,
			"count":2,
			"type":"VEC4"
		},
		{
			"bufferView":49,
			"componentType":5126,
			"count":2,
			"type":"VEC3"
		},
		{
			"bufferView":50,
			"componentType":5126,
			"count":2,
			"type":"VEC4"
		},
		{
			"bufferView":51,
			"componentType":5126,
			"count":2,
			"type":"VEC3"
		},
		{
			"bufferView":52,
			"componentType":5126,
			"count":2,
			"type":"VEC4"
		},
		{
			"bufferView":53,
			"componentType":5126,
			"count":50,
			"max":[
				2.0833333333333335
			],
			"min":[
				0.041666666666666664
			],
			"type":"SCALAR"
		},
		{
			"bufferView":54,
			"componentType":5126,
			"count":50,
			"type":"VEC3"
		},
		{
			"bufferView":55,
			"componentType":5126,
			"count":50,
			"type":"VEC4"
		}
	],
	"bufferViews":[
		{
			"buffer":0,
			"byteLength":10752,
			"byteOffset":0,
			"target":34962
		},
		{
			"buffer":0,
			"byteLength":10752,
			"byteOffset":10752,
			"target":34962
		},
		{
			"buffer":0,
			"byteLength":7168,
			"byteOffset":21504,
			"target":34962
		},
		{
			"buffer":0,
			"byteLength":5352,
			"byteOffset":28672,
			"target":34963
		},
		{
			"buffer":0,
			"byteLength":5760,
			"byteOffset":34024,
			"target":34962
		},
		{
			"buffer":0,
			"byteLength":5760,
			"byteOffset":39784,
			"target":34962
		},
		{
			"buffer":0,
			"byteLength":3840,
			"byteOffset":45544,
			"target":34962
		},
		{
			"buffer":0,
			"byteLength":3456,
			"byteOffset":49384,
			"target":34963
		},
		{
			"buffer":0,
			"byteLength":16080,
			"byteOffset":52840,
			"target":34962
		},
		{
			"buffer":0,
			"byteLength":16080,
			"byteOffset":68920,
			"target":34962
		},
		{
			"buffer":0,
			"byteLength":7896,
			"byteOffset":85000,
			"target":34963
		},
		{
			"buffer":0,
			"byteLength":3600,
			"byteOffset":92896,
			"target":34962
		},
		{
			"buffer":0,
			"byteLength":3600,
			"byteOffset":96496,
			"target":34962
		},
		{
			"buffer":0,
			"byteLength":1752,
			"byteOffset":100096,
			"target":34963
		},
		{
			"buffer":0,
			"byteLength":9312,
			"byteOffset":101848,
			"target":34962
		},
		{
			"buffer":0,
			"byteLength":9312,
			"byteOffset":111160,
			"target":34962
		},
		{
			"buffer":0,
			"byteLength":6208,
			"byteOffset":120472,
			"target":34962
		},
		{
			"buffer":0,
			"byteLength":4560,
			"byteOffset":126680,
			"target":34963
		},
		{
			"buffer":0,
			"byteLength":1872,
			"byteOffset":131240,
			"target":34962
		},
		{
			"buffer":0,
			"byteLength":1872,
			"byteOffset":133112,
			"target":34962
		},
		{
			"buffer":0,
			"byteLength":1248,
			"byteOffset":134984,
			"target":34962
		},
		{
			"buffer":0,
			"byteLength":888,
			"byteOffset":136232,
			"target":34963
		},
		{
			"buffer":0,
			"byteLength":1788,
			"byteOffset":137120,
			"target":34962
		},
		{
			"buffer":0,
			"byteLength":1788,
			"byteOffset":138908,
			"target":34962
		},
		{
			"buffer":0,
			"byteLength":1192,
			"byteOffset":140696,
			"target":34962
		},
		{
			"buffer":0,
			"byteLength":888,
			"byteOffset":141888,
			"target":34963
		},
		{
			"buffer":0,
			"byteLength":1872,
			"byteOffset":142776,
			"target":34962
		},
		{
			"buffer":0,
			"byteLength":1872,
			"byteOffset":144648,
			"target":34962
		},
		{
			"buffer":0,
			"byteLength":1248,
			"byteOffset":146520,
			"target":34962
		},
		{
			"buffer":0,
			"byteLength":888,
			"byteOffset":147768,
			"target":34963
		},
		{
			"buffer":0,
			"byteLength":2304,
			"byteOffset":148656,
			"target":34962
		},
		{
			"buffer":0,
			"byteLength":2304,
			"byteOffset":150960,
			"target":34962
		},
		{
			"buffer":0,
			"byteLength":1536,
			"byteOffset":153264,
			"target":34962
		},
		{
			"buffer":0,
			"byteLength":1128,
			"byteOffset":154800,
			"target":34963
		},
		{
			"buffer":0,
			"byteLength":2376,
			"byteOffset":155928,
			"target":34962
		},
		{
			"buffer":0,
			"byteLength":2376,
			"byteOffset":158304,
			"target":34962
		},
		{
			"buffer":0,
			"byteLength":1584,
			"byteOffset":160680,
			"target":34962
		},
		{
			"buffer":0,
			"byteLength":1152,
			"byteOffset":162264,
			"target":34963
		},
		{
			"buffer":0,
			"byteLength":9096,
			"byteOffset":163416,
			"target":34962
		},
		{
			"buffer":0,
			"byteLength":9096,
			"byteOffset":172512,
			"target":34962
		},
		{
			"buffer":0,
			"byteLength":6064,
			"byteOffset":181608,
			"target":34962
		},
		{
			"buffer":0,
			"byteLength":4584,
			"byteOffset":187672,
			"target":34963
		},
		{
			"buffer":0,
			"byteLength":7836,
			"byteOffset":192256,
			"target":34962
		},
		{
			"buffer":0,
			"byteLength":7836,
			"byteOffset":200092,
			"target":34962
		},
		{
			"buffer":0,
			"byteLength":5224,
			"byteOffset":207928,
			"target":34962
		},
		{
			"buffer":0,
			"byteLength":3888,
			"byteOffset":213152,
			"target":34963
		},
		{
			"buffer":0,
			"byteLength":8,
			"byteOffset":217040
		},
		{
			"buffer":0,
			"byteLength":24,
			"byteOffset":217048
		},
		{
			"buffer":0,
			"byteLength":32,
			"byteOffset":217072
		},
		{
			"buffer":0,
			"byteLength":24,
			"byteOffset":217104
		},
		{
			"buffer":0,
			"byteLength":32,
			"byteOffset":217128
		},
		{
			"buffer":0,
			"byteLength":24,
			"byteOffset":217160
		},
		{
			"buffer":0,
			"byteLength":32,
			"byteOffset":217184
		},
		{
			"buffer":0,
			"byteLength":200,
			"byteOffset":217216
		},
		{
			"buffer":0,
			"byteLength":600,
			"byteOffset":217416
		},
		{
			"buffer":0,
			"byteLength":800,
			"byteOffset":218016
		}
	],
	"buffers":[
		{
			"byteLength":218816,
			"uri":"data:application/octet-stream;base64,"
		}
	]
}
