{
	"asset":{
		"generator":"Khronos glTF Blender I/O v3.6.27",
		"version":"2.0"
	},
	"extensionsUsed":[
		"KHR_materials_emissive_strength"
	],
	"scene":0,
	"scenes":[
		{
			"name":"Scene",
			"nodes":[
				0,
				1,
				2
			]
		}
	],
	"nodes":[
		{
			"mesh":0,
			"name":"Circle"
		},
		{
			"mesh":1,
			"name":"Circle.001"
		},
		{
			"mesh":2,
			"name":"path0_fill",
			"translation":[
				0.04496443271636963,
				0.933495819568634,
				0.026826176792383194
			]
		}
	],
	"animations":[
		{
			"channels":[
				{
					"sampler":0,
					"target":{
						"node":2,
						"path":"translation"
					}
				},
				{
					"sampler":1,
					"target":{
						"node":2,
						"path":"rotation"
					}
				}
			],
			"name":"path0_fillAction.001",
			"samplers":[
				{
					"input":34,
					"interpolation":"LINEAR",
					"output":35
				},
				{
					"input":34,
					"interpolation":"LINEAR",
					"output":36
				}
			]
		}
	],
	"materials":[
		{
			"doubleSided":true,
			"name":"Material.018",
			"pbrMetallicRoughness":{
				"baseColorFactor":[
					0.011087574996054173,
					0.011087574996054173,
					0.011087574996054173,
					1
				],
				"metallicFactor":0,
				"roughnessFactor":0.5
			}
		},
		{
			"doubleSided":true,
			"emissiveFactor":[
				0,
				0.3178803622722626,
				1
			],
			"extensions":{
				"KHR_materials_emissive_strength":{
					"emissiveStrength":4.599999904632568
				}
			},
			"name":"Material.019",
			"pbrMetallicRoughness":{
				"baseColorFactor":[
					0,
					0,
					0,
					1
				]
			}
		},
		{
			"doubleSided":true,
			"name":"Material.020",
			"pbrMetallicRoughness":{
				"baseColorFactor":[
					0.011087574996054173,
					0.011087574996054173,
					0.011087574996054173,
					1
				],
				"metallicFactor":0,
				"roughnessFactor":0.5
			}
		},
		{
			"doubleSided":true,
			"emissiveFactor":[
				0,
				0.3178803622722626,
				1
			],
			"extensions":{
				"KHR_materials_emissive_strength":{
					"emissiveStrength":4.599999904632568
				}
			},
			"name":"Material.021",
			"pbrMetallicRoughness":{
				"baseColorFactor":[
					0,
					0,
					0,
					1
				]
			}
		},
		{
			"doubleSided":true,
			"name":"Material.022",
			"pbrMetallicRoughness":{
				"baseColorFactor":[
					1,
					0.04373478516936302,
					0,
					1
				],
				"metallicFactor":0,
				"roughnessFactor":0.5
			}
		},
		{
			"doubleSided":true,
			"name":"Material.023",
			"pbrMetallicRoughness":{
				"baseColorFactor":[
					1,
					0.09648074209690094,
					0.03805901110172272,
					1
				],
				"metallicFactor":0,
				"roughnessFactor":0.5
			}
		},
		{
			"doubleSided":true,
			"name":"Material.024",
			"pbrMetallicRoughness":{
				"baseColorFactor":[
					0.42326706647872925,
					0.07421308755874634,
					1,
					1
				],
				"metallicFactor":0,
				"roughnessFactor":0.5
			}
		},
		{
			"doubleSided":true,
			"name":"Material.025",
			"pbrMetallicRoughness":{
				"baseColorFactor":[
					0,
					0.5149170160293579,
					1,
					1
				],
				"metallicFactor":0,
				"roughnessFactor":0.5
			}
		},
		{
			"doubleSided":true,
			"name":"Material.026",
			"pbrMetallicRoughness":{
				"baseColorFactor":[
					0,
					0.6583746075630188,
					0.1980694681406021,
					1
				],
				"metallicFactor":0,
				"roughnessFactor":0.5
			}
		}
	],
	"meshes":[
		{
			"name":"Circle.007",
			"primitives":[
				{
					"attributes":{
						"POSITION":0,
						"NORMAL":1,
						"TEXCOORD_0":2
					},
					"indices":3,
					"material":0
				},
				{
					"attributes":{
						"POSITION":4,
						"NORMAL":5,
						"TEXCOORD_0":6
					},
					"indices":7,
					"material":1
				}
			]
		},
		{
			"name":"Circle.008",
			"primitives":[
				{
					"attributes":{
						"POSITION":8,
						"NORMAL":9,
						"TEXCOORD_0":10
					},
					"indices":3,
					"material":2
				},
				{
					"attributes":{
						"POSITION":11,
						"NORMAL":12,
						"TEXCOORD_0":13
					},
					"indices":7,
					"material":3
				}
			]
		},
		{
			"name":"path0_fill",
			"primitives":[
				{
					"attributes":{
						"POSITION":14,
						"NORMAL":15,
						"TEXCOORD_0":16
					},
					"indices":17,
					"material":4
				},
				{
					"attributes":{
						"POSITION":18,
						"NORMAL":19,
						"TEXCOORD_0":20
					},
					"indices":21,
					"material":5
				},
				{
					"attributes":{
						"POSITION":22,
						"NORMAL":23,
						"TEXCOORD_0":24
					},
					"indices":25,
					"material":6
				},
				{
					"attributes":{
						"POSITION":26,
						"NORMAL":27,
						"TEXCOORD_0":28
					},
					"indices":29,
					"material":7
				},
				{
					"attributes":{
						"POSITION":30,
						"NORMAL":31,
						"TEXCOORD_0":32
					},
					"indices":33,
					"material":8
				}
			]
		}
	],
	"accessors":[
		{
			"bufferView":0,
			"componentType":5126,
			"count":896,
			"max":[
				0.9562265276908875,
				0.2911989092826843,
				0.9562265276908875
			],
			"min":[
				-0.9562265276908875,
				0.002089753746986389,
				-0.9562265276908875
			],
			"type":"VEC3"
		},
		{
			"bufferView":1,
			"componentType":5126,
			"count":896,
			"type":"VEC3"
		},
		{
			"bufferView":2,
			"componentType":5126,
			"count":896,
			"type":"VEC2"
		},
		{
			"bufferView":3,
			"componentType":5123,
			"count":2676,
			"type":"SCALAR"
		},
		{
			"bufferView":4,
			"componentType":5126,
			"count":480,
			"max":[
				0.931115984916687,
				0.2911989092826843,
				0.931115984916687
			],
			"min":[
				-0.931115984916687,
				0.07882295548915863,
				-0.931115984916687
			],
			"type":"VEC3"
		},
		{
			"bufferView":5,
			"componentType":5126,
			"count":480,
			"type":"VEC3"
		},
		{
			"bufferView":6,
			"componentType":5126,
			"count":480,
			"type":"VEC2"
		},
		{
			"bufferView":7,
			"componentType":5123,
			"count":1728,
			"type":"SCALAR"
		},
		{
			"bufferView":8,
			"componentType":5126,
			"count":896,
			"max":[
				0.9562265276908875,
				0.2911989092826843,
				0.9562265276908875
			],
			"min":[
				-0.9562265276908875,
				0.002089753746986389,
				-0.9562265276908875
			],
			"type":"VEC3"
		},
		{
			"bufferView":9,
			"componentType":5126,
			"count":896,
			"type":"VEC3"
		},
		{
			"bufferView":10,
			"componentType":5126,
			"count":896,
			"type":"VEC2"
		},
		{
			"bufferView":11,
			"componentType":5126,
			"count":480,
			"max":[
				0.931115984916687,
				0.2911989092826843,
				0.931115984916687
			],
			"min":[
				-0.931115984916687,
				0.07882295548915863,
				-0.931115984916687
			],
			"type":"VEC3"
		},
		{
			"bufferView":12,
			"componentType":5126,
			"count":480,
			"type":"VEC3"
		},
		{
			"bufferView":13,
			"componentType":5126,
			"count":480,
			"type":"VEC2"
		},
		{
			"bufferView":14,
			"componentType":5126,
			"count":156,
			"max":[
				0.015663612633943558,
				0.40706944465637207,
				-2.9403317114429228e-08
			],
			"min":[
				-0.29364630579948425,
				0.09782485663890839,
				-0.09106507897377014
			],
			"type":"VEC3"
		},
		{
			"bufferView":15,
			"componentType":5126,
			"count":156,
			"type":"VEC3"
		},
		{
			"bufferView":16,
			"componentType":5126,
			"count":156,
			"type":"VEC2"
		},
		{
			"bufferView":17,
			"componentType":5123,
			"count":444,
			"type":"SCALAR"
		},
		{
			"bufferView":18,
			"componentType":5126,
			"count":161,
			"max":[
				0.32497355341911316,
				0.40706944465637207,
				-2.9403317114429228e-08
			],
			"min":[
				0.015663612633943558,
				0.09782485663890839,
				-0.09106507897377014
			],
			"type":"VEC3"
		},
		{
			"bufferView":19,
			"componentType":5126,
			"count":161,
			"type":"VEC3"
		},
		{
			"bufferView":20,
			"componentType":5126,
			"count":161,
			"type":"VEC2"
		},
		{
			"bufferView":21,
			"componentType":5123,
			"count":444,
			"type":"SCALAR"
		},
		{
			"bufferView":22,
			"componentType":5126,
			"count":156,
			"max":[
				0.015663612633943558,
				0.09782486408948898,
				-4.2920831333503884e-08
			],
			"min":[
				-0.29364630579948425,
				-0.21141976118087769,
				-0.09106509387493134
			],
			"type":"VEC3"
		},
		{
			"bufferView":23,
			"componentType":5126,
			"count":156,
			"type":"VEC3"
		},
		{
			"bufferView":24,
			"componentType":5126,
			"count":156,
			"type":"VEC2"
		},
		{
			"bufferView":25,
			"componentType":5123,
			"count":444,
			"type":"SCALAR"
		},
		{
			"bufferView":26,
			"componentType":5126,
			"count":192,
			"max":[
				0.32497355341911316,
				0.09782486408948898,
				-4.2920831333503884e-08
			],
			"min":[
				0.015663612633943558,
				-0.21141976118087769,
				-0.09106509387493134
			],
			"type":"VEC3"
		},
		{
			"bufferView":27,
			"componentType":5126,
			"count":192,
			"type":"VEC3"
		},
		{
			"bufferView":28,
			"componentType":5126,
			"count":192,
			"type":"VEC2"
		},
		{
			"bufferView":29,
			"componentType":5123,
			"count":564,
			"type":"SCALAR"
		},
		{
			"bufferView":30,
			"componentType":5126,
			"count":198,
			"max":[
				0.01566365174949169,
				-0.2114197313785553,
				-5.643834199986486e-08
			],
			"min":[
				-0.29364630579948425,
				-0.520664393901825,
				-0.09106512367725372
			],
			"type":"VEC3"
		},
		{
			"bufferView":31,
			"componentType":5126,
			"count":198,
			"type":"VEC3"
		},
		{
			"bufferView":32,
			"componentType":5126,
			"count":198,
			"type":"VEC2"
		},
		{
			"bufferView":33,
			"componentType":5123,
			"count":576,
			"type":"SCALAR"
		},
		{
			"bufferView":34,
			"componentType":5126,
			"count":50,
			"max":[
				2.0833333333333335
			],
			"min":[
				0.041666666666666664
			],
			"type":"SCALAR"
		},
		{
			"bufferView":35,
			"componentType":5126,
			"count":50,
			"type":"VEC3"
		},
		{
			"bufferView":36,
			"componentType":5126,
			"count":50,
			"type":"VEC4"
		}
	],
	"bufferViews":[
		{
			"buffer":0,
			"byteLength":10752,
			"byteOffset":0,
			"target":34962
		},
		{
			"buffer":0,
			"byteLength":10752,
			"byteOffset":10752,
			"target":34962
		},
		{
			"buffer":0,
			"byteLength":7168,
			"byteOffset":21504,
			"target":34962
		},
		{
			"buffer":0,
			"byteLength":5352,
			"byteOffset":28672,
			"target":34963
		},
		{
			"buffer":0,
			"byteLength":5760,
			"byteOffset":34024,
			"target":34962
		},
		{
			"buffer":0,
			"byteLength":5760,
			"byteOffset":39784,
			"target":34962
		},
		{
			"buffer":0,
			"byteLength":3840,
			"byteOffset":45544,
			"target":34962
		},
		{
			"buffer":0,
			"byteLength":3456,
			"byteOffset":49384,
			"target":34963
		},
		{
			"buffer":0,
			"byteLength":10752,
			"byteOffset":52840,
			"target":34962
		},
		{
			"buffer":0,
			"byteLength":10752,
			"byteOffset":63592,
			"target":34962
		},
		{
			"buffer":0,
			"byteLength":7168,
			"byteOffset":74344,
			"target":34962
		},
		{
			"buffer":0,
			"byteLength":5760,
			"byteOffset":81512,
			"target":34962
		},
		{
			"buffer":0,
			"byteLength":5760,
			"byteOffset":87272,
			"target":34962
		},
		{
			"buffer":0,
			"byteLength":3840,
			"byteOffset":93032,
			"target":34962
		},
		{
			"buffer":0,
			"byteLength":1872,
			"byteOffset":96872,
			"target":34962
		},
		{
			"buffer":0,
			"byteLength":1872,
			"byteOffset":98744,
			"target":34962
		},
		{
			"buffer":0,
			"byteLength":1248,
			"byteOffset":100616,
			"target":34962
		},
		{
			"buffer":0,
			"byteLength":888,
			"byteOffset":101864,
			"target":34963
		},
		{
			"buffer":0,
			"byteLength":1932,
			"byteOffset":102752,
			"target":34962
		},
		{
			"buffer":0,
			"byteLength":1932,
			"byteOffset":104684,
			"target":34962
		},
		{
			"buffer":0,
			"byteLength":1288,
			"byteOffset":106616,
			"target":34962
		},
		{
			"buffer":0,
			"byteLength":888,
			"byteOffset":107904,
			"target":34963
		},
		{
			"buffer":0,
			"byteLength":1872,
			"byteOffset":108792,
			"target":34962
		},
		{
			"buffer":0,
			"byteLength":1872,
			"byteOffset":110664,
			"target":34962
		},
		{
			"buffer":0,
			"byteLength":1248,
			"byteOffset":112536,
			"target":34962
		},
		{
			"buffer":0,
			"byteLength":888,
			"byteOffset":113784,
			"target":34963
		},
		{
			"buffer":0,
			"byteLength":2304,
			"byteOffset":114672,
			"target":34962
		},
		{
			"buffer":0,
			"byteLength":2304,
			"byteOffset":116976,
			"target":34962
		},
		{
			"buffer":0,
			"byteLength":1536,
			"byteOffset":119280,
			"target":34962
		},
		{
			"buffer":0,
			"byteLength":1128,
			"byteOffset":120816,
			"target":34963
		},
		{
			"buffer":0,
			"byteLength":2376,
			"byteOffset":121944,
			"target":34962
		},
		{
			"buffer":0,
			"byteLength":2376,
			"byteOffset":124320,
			"target":34962
		},
		{
			"buffer":0,
			"byteLength":1584,
			"byteOffset":126696,
			"target":34962
		},
		{
			"buffer":0,
			"byteLength":1152,
			"byteOffset":128280,
			"target":34963
		},
		{
			"buffer":0,
			"byteLength":200,
			"byteOffset":129432
		},
		{
			"buffer":0,
			"byteLength":600,
			"byteOffset":129632
		},
		{
			"buffer":0,
			"byteLength":800,
			"byteOffset":130232
		}
	],
	"buffers":[
		{
			"byteLength":131032,
			"uri":"data:application/octet-stream;base64,"
		}
	]
}
