{
	"asset":{
		"generator":"Khronos glTF Blender I/O v3.6.27",
		"version":"2.0"
	},
	"extensionsUsed":[
		"KHR_materials_emissive_strength"
	],
	"scene":0,
	"scenes":[
		{
			"name":"Scene",
			"nodes":[
				0,
				1
			]
		}
	],
	"nodes":[
		{
			"mesh":0,
			"name":"Circle"
		},
		{
			"mesh":1,
			"name":"fl-studio-icon-37756.001",
			"scale":[
				1.3031351566314697,
				1.3031351566314697,
				1.3031351566314697
			],
			"translation":[
				0.04496443271636963,
				0.933495819568634,
				0.026826176792383194
			]
		}
	],
	"animations":[
		{
			"channels":[
				{
					"sampler":0,
					"target":{
						"node":1,
						"path":"translation"
					}
				},
				{
					"sampler":1,
					"target":{
						"node":1,
						"path":"rotation"
					}
				}
			],
			"name":"fl-studio-icon-37756.001Action",
			"samplers":[
				{
					"input":12,
					"interpolation":"LINEAR",
					"output":13
				},
				{
					"input":12,
					"interpolation":"LINEAR",
					"output":14
				}
			]
		}
	],
	"materials":[
		{
			"doubleSided":true,
			"name":"Material.001",
			"pbrMetallicRoughness":{
				"baseColorFactor":[
					0.011087574996054173,
					0.011087574996054173,
					0.011087574996054173,
					1
				],
				"metallicFactor":0,
				"roughnessFactor":0.5
			}
		},
		{
			"doubleSided":true,
			"emissiveFactor":[
				0,
				0.3178803622722626,
				1
			],
			"extensions":{
				"KHR_materials_emissive_strength":{
					"emissiveStrength":4.599999904632568
				}
			},
			"name":"Material.002",
			"pbrMetallicRoughness":{
				"baseColorFactor":[
					0,
					0,
					0,
					1
				]
			}
		},
		{
			"doubleSided":true,
			"name":"fl-studio-icon-37756",
			"pbrMetallicRoughness":{
				"baseColorTexture":{
					"index":0
				},
				"metallicFactor":0,
				"roughnessFactor":0.5
			}
		}
	],
	"meshes":[
		{
			"name":"Circle",
			"primitives":[
				{
					"attributes":{
						"POSITION":0,
						"NORMAL":1,
						"TEXCOORD_0":2
					},
					"indices":3,
					"material":0
				},
				{
					"attributes":{
						"POSITION":4,
						"NORMAL":5,
						"TEXCOORD_0":6
					},
					"indices":7,
					"material":1
				}
			]
		},
		{
			"name":"fl-studio-icon-37756.001",
			"primitives":[
				{
					"attributes":{
						"POSITION":8,
						"NORMAL":9,
						"TEXCOORD_0":10
					},
					"indices":11,
					"material":2
				}
			]
		}
	],
	"textures":[
		{
			"sampler":0,
			"source":0
		}
	],
	"images":[
		{
			"bufferView":12,
			"mimeType":"image/jpeg",
			"name":"fl-studio-icon-37756"
		}
	],
	"accessors":[
		{
			"bufferView":0,
			"componentType":5126,
			"count":896,
			"max":[
				0.9562265276908875,
				0.2911989092826843,
				0.9562265276908875
			],
			"min":[
				-0.9562265276908875,
				0.002089753746986389,
				-0.9562265276908875
			],
			"type":"VEC3"
		},
		{
			"bufferView":1,
			"componentType":5126,
			"count":896,
			"type":"VEC3"
		},
		{
			"bufferView":2,
			"componentType":5126,
			"count":896,
			"type":"VEC2"
		},
		{
			"bufferView":3,
			"componentType":5123,
			"count":2676,
			"type":"SCALAR"
		},
		{
			"bufferView":4,
			"componentType":5126,
			"count":480,
			"max":[
				0.931115984916687,
				0.2911989092826843,
				0.931115984916687
			],
			"min":[
				-0.931115984916687,
				0.07882295548915863,
				-0.931115984916687
			],
			"type":"VEC3"
		},
		{
			"bufferView":5,
			"componentType":5126,
			"count":480,
			"type":"VEC3"
		},
		{
			"bufferView":6,
			"componentType":5126,
			"count":480,
			"type":"VEC2"
		},
		{
			"bufferView":7,
			"componentType":5123,
			"count":1728,
			"type":"SCALAR"
		},
		{
			"bufferView":8,
			"componentType":5126,
			"count":506,
			"max":[
				0.2934000790119171,
				0.49699240922927856,
				0.03661765158176422
			],
			"min":[
				-0.2902138829231262,
				-0.4437248706817627,
				-0.04051397740840912
			],
			"type":"VEC3"
		},
		{
			"bufferView":9,
			"componentType":5126,
			"count":506,
			"type":"VEC3"
		},
		{
			"bufferView":10,
			"componentType":5126,
			"count":506,
			"type":"VEC2"
		},
		{
			"bufferView":11,
			"componentType":5123,
			"count":1428,
			"type":"SCALAR"
		},
		{
			"bufferView":13,
			"componentType":5126,
			"count":50,
			"max":[
				2.0833333333333335
			],
			"min":[
				0.041666666666666664
			],
			"type":"SCALAR"
		},
		{
			"bufferView":14,
			"componentType":5126,
			"count":50,
			"type":"VEC3"
		},
		{
			"bufferView":15,
			"componentType":5126,
			"count":50,
			"type":"VEC4"
		}
	],
	"bufferViews":[
		{
			"buffer":0,
			"byteLength":10752,
			"byteOffset":0,
			"target":34962
		},
		{
			"buffer":0,
			"byteLength":10752,
			"byteOffset":10752,
			"target":34962
		},
		{
			"buffer":0,
			"byteLength":7168,
			"byteOffset":21504,
			"target":34962
		},
		{
			"buffer":0,
			"byteLength":5352,
			"byteOffset":28672,
			"target":34963
		},
		{
			"buffer":0,
			"byteLength":5760,
			"byteOffset":34024,
			"target":34962
		},
		{
			"buffer":0,
			"byteLength":5760,
			"byteOffset":39784,
			"target":34962
		},
		{
			"buffer":0,
			"byteLength":3840,
			"byteOffset":45544,
			"target":34962
		},
		{
			"buffer":0,
			"byteLength":3456,
			"byteOffset":49384,
			"target":34963
		},
		{
			"buffer":0,
			"byteLength":6072,
			"byteOffset":52840,
			"target":34962
		},
		{
			"buffer":0,
			"byteLength":6072,
			"byteOffset":58912,
			"target":34962
		},
		{
			"buffer":0,
			"byteLength":4048,
			"byteOffset":64984,
			"target":34962
		},
		{
			"buffer":0,
			"byteLength":2856,
			"byteOffset":69032,
			"target":34963
		},
		{
			"buffer":0,
			"byteLength":442669,
			"byteOffset":71888
		},
		{
			"buffer":0,
			"byteLength":200,
			"byteOffset":514560
		},
		{
			"buffer":0,
			"byteLength":600,
			"byteOffset":514760
		},
		{
			"buffer":0,
			"byteLength":800,
			"byteOffset":515360
		}
	],
	"samplers":[
		{
			"magFilter":9729,
			"minFilter":9987,
			"wrapS":33071,
			"wrapT":33071
		}
	],
	"buffers":[
		{
			"byteLength":516160,
			"uri":"data:application/octet-stream;base64,"
		}
	]
}
