{
	"asset":{
		"generator":"Khronos glTF Blender I/O v3.6.27",
		"version":"2.0"
	},
	"extensionsUsed":[
		"KHR_materials_emissive_strength"
	],
	"scene":0,
	"scenes":[
		{
			"name":"Scene",
			"nodes":[
				0,
				1
			]
		}
	],
	"nodes":[
		{
			"mesh":0,
			"name":"Circle"
		},
		{
			"mesh":1,
			"name":"Curve.002",
			"scale":[
				21.659366607666016,
				21.659366607666016,
				21.659366607666016
			],
			"translation":[
				0.04496443271636963,
				0.933495819568634,
				0.026826176792383194
			]
		}
	],
	"animations":[
		{
			"channels":[
				{
					"sampler":0,
					"target":{
						"node":1,
						"path":"translation"
					}
				},
				{
					"sampler":1,
					"target":{
						"node":1,
						"path":"rotation"
					}
				}
			],
			"name":"Curve.002Action.001",
			"samplers":[
				{
					"input":24,
					"interpolation":"LINEAR",
					"output":25
				},
				{
					"input":24,
					"interpolation":"LINEAR",
					"output":26
				}
			]
		}
	],
	"materials":[
		{
			"doubleSided":true,
			"name":"Material.005",
			"pbrMetallicRoughness":{
				"baseColorFactor":[
					0.011087574996054173,
					0.011087574996054173,
					0.011087574996054173,
					1
				],
				"metallicFactor":0,
				"roughnessFactor":0.5
			}
		},
		{
			"doubleSided":true,
			"emissiveFactor":[
				0,
				0.3178803622722626,
				1
			],
			"extensions":{
				"KHR_materials_emissive_strength":{
					"emissiveStrength":4.599999904632568
				}
			},
			"name":"Material.006",
			"pbrMetallicRoughness":{
				"baseColorFactor":[
					0,
					0,
					0,
					1
				]
			}
		},
		{
			"doubleSided":true,
			"name":"SVGMat.005",
			"pbrMetallicRoughness":{
				"baseColorFactor":[
					0,
					0.11953842639923096,
					0.2541520893573761,
					1
				],
				"metallicFactor":0,
				"roughnessFactor":0.4000000059604645
			}
		},
		{
			"doubleSided":true,
			"name":"SVGMat.006",
			"pbrMetallicRoughness":{
				"baseColorFactor":[
					0.7758222222328186,
					0.27049779891967773,
					0,
					1
				],
				"metallicFactor":0,
				"roughnessFactor":0.4000000059604645
			}
		},
		{
			"doubleSided":true,
			"name":"SVGMat.007",
			"pbrMetallicRoughness":{
				"baseColorFactor":[
					0,
					0.11953842639923096,
					0.2541520893573761,
					1
				],
				"metallicFactor":0,
				"roughnessFactor":0.4000000059604645
			}
		},
		{
			"doubleSided":true,
			"name":"SVGMat.008",
			"pbrMetallicRoughness":{
				"baseColorFactor":[
					0.7758222222328186,
					0.27049779891967773,
					0,
					1
				],
				"metallicFactor":0,
				"roughnessFactor":0.4000000059604645
			}
		}
	],
	"meshes":[
		{
			"name":"Circle.002",
			"primitives":[
				{
					"attributes":{
						"POSITION":0,
						"NORMAL":1,
						"TEXCOORD_0":2
					},
					"indices":3,
					"material":0
				},
				{
					"attributes":{
						"POSITION":4,
						"NORMAL":5,
						"TEXCOORD_0":6
					},
					"indices":7,
					"material":1
				}
			]
		},
		{
			"name":"Curve.005",
			"primitives":[
				{
					"attributes":{
						"POSITION":8,
						"NORMAL":9,
						"TEXCOORD_0":10
					},
					"indices":11,
					"material":2
				},
				{
					"attributes":{
						"POSITION":12,
						"NORMAL":13,
						"TEXCOORD_0":14
					},
					"indices":15,
					"material":3
				},
				{
					"attributes":{
						"POSITION":16,
						"NORMAL":17,
						"TEXCOORD_0":18
					},
					"indices":19,
					"material":4
				},
				{
					"attributes":{
						"POSITION":20,
						"NORMAL":21,
						"TEXCOORD_0":22
					},
					"indices":23,
					"material":5
				}
			]
		}
	],
	"accessors":[
		{
			"bufferView":0,
			"componentType":5126,
			"count":896,
			"max":[
				0.9562265276908875,
				0.2911989092826843,
				0.9562265276908875
			],
			"min":[
				-0.9562265276908875,
				0.002089753746986389,
				-0.9562265276908875
			],
			"type":"VEC3"
		},
		{
			"bufferView":1,
			"componentType":5126,
			"count":896,
			"type":"VEC3"
		},
		{
			"bufferView":2,
			"componentType":5126,
			"count":896,
			"type":"VEC2"
		},
		{
			"bufferView":3,
			"componentType":5123,
			"count":2676,
			"type":"SCALAR"
		},
		{
			"bufferView":4,
			"componentType":5126,
			"count":480,
			"max":[
				0.931115984916687,
				0.2911989092826843,
				0.931115984916687
			],
			"min":[
				-0.931115984916687,
				0.07882295548915863,
				-0.931115984916687
			],
			"type":"VEC3"
		},
		{
			"bufferView":5,
			"componentType":5126,
			"count":480,
			"type":"VEC3"
		},
		{
			"bufferView":6,
			"componentType":5126,
			"count":480,
			"type":"VEC2"
		},
		{
			"bufferView":7,
			"componentType":5123,
			"count":1728,
			"type":"SCALAR"
		},
		{
			"bufferView":8,
			"componentType":5126,
			"count":1377,
			"max":[
				-0.007455558981746435,
				0.005401356145739555,
				0.0013296935940161347
			],
			"min":[
				-0.03727526217699051,
				-0.009124558418989182,
				-0.0023041702806949615
			],
			"type":"VEC3"
		},
		{
			"bufferView":9,
			"componentType":5126,
			"count":1377,
			"type":"VEC3"
		},
		{
			"bufferView":10,
			"componentType":5126,
			"count":1377,
			"type":"VEC2"
		},
		{
			"bufferView":11,
			"componentType":5123,
			"count":3012,
			"type":"SCALAR"
		},
		{
			"bufferView":12,
			"componentType":5126,
			"count":3933,
			"max":[
				0.0303493682295084,
				0.005189133808016777,
				0.0013296935940161347
			],
			"min":[
				-0.005624809768050909,
				-0.007432256825268269,
				-0.002304170047864318
			],
			"type":"VEC3"
		},
		{
			"bufferView":13,
			"componentType":5126,
			"count":3933,
			"type":"VEC3"
		},
		{
			"bufferView":14,
			"componentType":5126,
			"count":3933,
			"type":"VEC2"
		},
		{
			"bufferView":15,
			"componentType":5123,
			"count":8232,
			"type":"SCALAR"
		},
		{
			"bufferView":16,
			"componentType":5126,
			"count":4928,
			"max":[
				0.033420272171497345,
				0.028172528371214867,
				0.0013296946417540312
			],
			"min":[
				0.007742778398096561,
				0.006902600638568401,
				-0.0023041695822030306
			],
			"type":"VEC3"
		},
		{
			"bufferView":17,
			"componentType":5126,
			"count":4928,
			"type":"VEC3"
		},
		{
			"bufferView":18,
			"componentType":5126,
			"count":4928,
			"type":"VEC2"
		},
		{
			"bufferView":19,
			"componentType":5123,
			"count":9984,
			"type":"SCALAR"
		},
		{
			"bufferView":20,
			"componentType":5126,
			"count":1033,
			"max":[
				0.03497472405433655,
				-0.00241283280774951,
				0.0013296932447701693
			],
			"min":[
				0.03146663308143616,
				-0.0059201838448643684,
				-0.002304170047864318
			],
			"type":"VEC3"
		},
		{
			"bufferView":21,
			"componentType":5126,
			"count":1033,
			"type":"VEC3"
		},
		{
			"bufferView":22,
			"componentType":5126,
			"count":1033,
			"type":"VEC2"
		},
		{
			"bufferView":23,
			"componentType":5123,
			"count":2148,
			"type":"SCALAR"
		},
		{
			"bufferView":24,
			"componentType":5126,
			"count":50,
			"max":[
				2.0833333333333335
			],
			"min":[
				0.041666666666666664
			],
			"type":"SCALAR"
		},
		{
			"bufferView":25,
			"componentType":5126,
			"count":50,
			"type":"VEC3"
		},
		{
			"bufferView":26,
			"componentType":5126,
			"count":50,
			"type":"VEC4"
		}
	],
	"bufferViews":[
		{
			"buffer":0,
			"byteLength":10752,
			"byteOffset":0,
			"target":34962
		},
		{
			"buffer":0,
			"byteLength":10752,
			"byteOffset":10752,
			"target":34962
		},
		{
			"buffer":0,
			"byteLength":7168,
			"byteOffset":21504,
			"target":34962
		},
		{
			"buffer":0,
			"byteLength":5352,
			"byteOffset":28672,
			"target":34963
		},
		{
			"buffer":0,
			"byteLength":5760,
			"byteOffset":34024,
			"target":34962
		},
		{
			"buffer":0,
			"byteLength":5760,
			"byteOffset":39784,
			"target":34962
		},
		{
			"buffer":0,
			"byteLength":3840,
			"byteOffset":45544,
			"target":34962
		},
		{
			"buffer":0,
			"byteLength":3456,
			"byteOffset":49384,
			"target":34963
		},
		{
			"buffer":0,
			"byteLength":16524,
			"byteOffset":52840,
			"target":34962
		},
		{
			"buffer":0,
			"byteLength":16524,
			"byteOffset":69364,
			"target":34962
		},
		{
			"buffer":0,
			"byteLength":11016,
			"byteOffset":85888,
			"target":34962
		},
		{
			"buffer":0,
			"byteLength":6024,
			"byteOffset":96904,
			"target":34963
		},
		{
			"buffer":0,
			"byteLength":47196,
			"byteOffset":102928,
			"target":34962
		},
		{
			"buffer":0,
			"byteLength":47196,
			"byteOffset":150124,
			"target":34962
		},
		{
			"buffer":0,
			"byteLength":31464,
			"byteOffset":197320,
			"target":34962
		},
		{
			"buffer":0,
			"byteLength":16464,
			"byteOffset":228784,
			"target":34963
		},
		{
			"buffer":0,
			"byteLength":59136,
			"byteOffset":245248,
			"target":34962
		},
		{
			"buffer":0,
			"byteLength":59136,
			"byteOffset":304384,
			"target":34962
		},
		{
			"buffer":0,
			"byteLength":39424,
			"byteOffset":363520,
			"target":34962
		},
		{
			"buffer":0,
			"byteLength":19968,
			"byteOffset":402944,
			"target":34963
		},
		{
			"buffer":0,
			"byteLength":12396,
			"byteOffset":422912,
			"target":34962
		},
		{
			"buffer":0,
			"byteLength":12396,
			"byteOffset":435308,
			"target":34962
		},
		{
			"buffer":0,
			"byteLength":8264,
			"byteOffset":447704,
			"target":34962
		},
		{
			"buffer":0,
			"byteLength":4296,
			"byteOffset":455968,
			"target":34963
		},
		{
			"buffer":0,
			"byteLength":200,
			"byteOffset":460264
		},
		{
			"buffer":0,
			"byteLength":600,
			"byteOffset":460464
		},
		{
			"buffer":0,
			"byteLength":800,
			"byteOffset":461064
		}
	],
	"buffers":[
		{
			"byteLength":461864,
			"uri":"data:application/octet-stream;base64,"
		}
	]
}
