{
	"asset":{
		"generator":"Khronos glTF Blender I/O v3.6.27",
		"version":"2.0"
	},
	"extensionsUsed":[
		"KHR_materials_emissive_strength"
	],
	"scene":0,
	"scenes":[
		{
			"name":"Scene",
			"nodes":[
				0,
				1
			]
		}
	],
	"nodes":[
		{
			"mesh":0,
			"name":"Circle"
		},
		{
			"mesh":1,
			"name":"Curve.005",
			"scale":[
				14.552639961242676,
				14.552639961242676,
				14.552639961242676
			],
			"translation":[
				0.04496443271636963,
				0.933495819568634,
				0.026826176792383194
			]
		}
	],
	"animations":[
		{
			"channels":[
				{
					"sampler":0,
					"target":{
						"node":1,
						"path":"translation"
					}
				},
				{
					"sampler":1,
					"target":{
						"node":1,
						"path":"rotation"
					}
				}
			],
			"name":"Curve.005Action",
			"samplers":[
				{
					"input":16,
					"interpolation":"LINEAR",
					"output":17
				},
				{
					"input":16,
					"interpolation":"LINEAR",
					"output":18
				}
			]
		}
	],
	"materials":[
		{
			"doubleSided":true,
			"name":"Material.007",
			"pbrMetallicRoughness":{
				"baseColorFactor":[
					0.011087574996054173,
					0.011087574996054173,
					0.011087574996054173,
					1
				],
				"metallicFactor":0,
				"roughnessFactor":0.5
			}
		},
		{
			"doubleSided":true,
			"emissiveFactor":[
				0,
				0.3178803622722626,
				1
			],
			"extensions":{
				"KHR_materials_emissive_strength":{
					"emissiveStrength":4.599999904632568
				}
			},
			"name":"Material.008",
			"pbrMetallicRoughness":{
				"baseColorFactor":[
					0,
					0,
					0,
					1
				]
			}
		},
		{
			"doubleSided":true,
			"name":"SVGMat.004",
			"pbrMetallicRoughness":{
				"baseColorFactor":[
					0,
					0,
					0,
					1
				],
				"metallicFactor":0,
				"roughnessFactor":0.4000000059604645
			}
		},
		{
			"doubleSided":true,
			"name":"SVGMat.001",
			"pbrMetallicRoughness":{
				"baseColorFactor":[
					0,
					0,
					0,
					1
				],
				"metallicFactor":0,
				"roughnessFactor":0.4000000059604645
			}
		}
	],
	"meshes":[
		{
			"name":"Circle.003",
			"primitives":[
				{
					"attributes":{
						"POSITION":0,
						"NORMAL":1,
						"TEXCOORD_0":2
					},
					"indices":3,
					"material":0
				},
				{
					"attributes":{
						"POSITION":4,
						"NORMAL":5,
						"TEXCOORD_0":6
					},
					"indices":7,
					"material":1
				}
			]
		},
		{
			"name":"Curve.004",
			"primitives":[
				{
					"attributes":{
						"POSITION":8,
						"NORMAL":9,
						"TEXCOORD_0":10
					},
					"indices":11,
					"material":2
				},
				{
					"attributes":{
						"POSITION":12,
						"NORMAL":13,
						"TEXCOORD_0":14
					},
					"indices":15,
					"material":3
				}
			]
		}
	],
	"accessors":[
		{
			"bufferView":0,
			"componentType":5126,
			"count":896,
			"max":[
				0.9562265276908875,
				0.2911989092826843,
				0.9562265276908875
			],
			"min":[
				-0.9562265276908875,
				0.002089753746986389,
				-0.9562265276908875
			],
			"type":"VEC3"
		},
		{
			"bufferView":1,
			"componentType":5126,
			"count":896,
			"type":"VEC3"
		},
		{
			"bufferView":2,
			"componentType":5126,
			"count":896,
			"type":"VEC2"
		},
		{
			"bufferView":3,
			"componentType":5123,
			"count":2676,
			"type":"SCALAR"
		},
		{
			"bufferView":4,
			"componentType":5126,
			"count":480,
			"max":[
				0.931115984916687,
				0.2911989092826843,
				0.931115984916687
			],
			"min":[
				-0.931115984916687,
				0.07882295548915863,
				-0.931115984916687
			],
			"type":"VEC3"
		},
		{
			"bufferView":5,
			"componentType":5126,
			"count":480,
			"type":"VEC3"
		},
		{
			"bufferView":6,
			"componentType":5126,
			"count":480,
			"type":"VEC2"
		},
		{
			"bufferView":7,
			"componentType":5123,
			"count":1728,
			"type":"SCALAR"
		},
		{
			"bufferView":8,
			"componentType":5126,
			"count":630,
			"max":[
				0.058193668723106384,
				0.006810028105974197,
				0.0017772046849131584
			],
			"min":[
				-0.052957117557525635,
				-0.015565929934382439,
				-0.002111581386998296
			],
			"type":"VEC3"
		},
		{
			"bufferView":9,
			"componentType":5126,
			"count":630,
			"type":"VEC3"
		},
		{
			"bufferView":10,
			"componentType":5126,
			"count":630,
			"type":"VEC2"
		},
		{
			"bufferView":11,
			"componentType":5123,
			"count":726,
			"type":"SCALAR"
		},
		{
			"bufferView":12,
			"componentType":5126,
			"count":192,
			"max":[
				0.040319234132766724,
				0.006810024380683899,
				0.0017772046849131584
			],
			"min":[
				-0.03023776039481163,
				-0.01559414528310299,
				-0.002111581386998296
			],
			"type":"VEC3"
		},
		{
			"bufferView":13,
			"componentType":5126,
			"count":192,
			"type":"VEC3"
		},
		{
			"bufferView":14,
			"componentType":5126,
			"count":192,
			"type":"VEC2"
		},
		{
			"bufferView":15,
			"componentType":5123,
			"count":336,
			"type":"SCALAR"
		},
		{
			"bufferView":16,
			"componentType":5126,
			"count":50,
			"max":[
				2.0833333333333335
			],
			"min":[
				0.041666666666666664
			],
			"type":"SCALAR"
		},
		{
			"bufferView":17,
			"componentType":5126,
			"count":50,
			"type":"VEC3"
		},
		{
			"bufferView":18,
			"componentType":5126,
			"count":50,
			"type":"VEC4"
		}
	],
	"bufferViews":[
		{
			"buffer":0,
			"byteLength":10752,
			"byteOffset":0,
			"target":34962
		},
		{
			"buffer":0,
			"byteLength":10752,
			"byteOffset":10752,
			"target":34962
		},
		{
			"buffer":0,
			"byteLength":7168,
			"byteOffset":21504,
			"target":34962
		},
		{
			"buffer":0,
			"byteLength":5352,
			"byteOffset":28672,
			"target":34963
		},
		{
			"buffer":0,
			"byteLength":5760,
			"byteOffset":34024,
			"target":34962
		},
		{
			"buffer":0,
			"byteLength":5760,
			"byteOffset":39784,
			"target":34962
		},
		{
			"buffer":0,
			"byteLength":3840,
			"byteOffset":45544,
			"target":34962
		},
		{
			"buffer":0,
			"byteLength":3456,
			"byteOffset":49384,
			"target":34963
		},
		{
			"buffer":0,
			"byteLength":7560,
			"byteOffset":52840,
			"target":34962
		},
		{
			"buffer":0,
			"byteLength":7560,
			"byteOffset":60400,
			"target":34962
		},
		{
			"buffer":0,
			"byteLength":5040,
			"byteOffset":67960,
			"target":34962
		},
		{
			"buffer":0,
			"byteLength":1452,
			"byteOffset":73000,
			"target":34963
		},
		{
			"buffer":0,
			"byteLength":2304,
			"byteOffset":74452,
			"target":34962
		},
		{
			"buffer":0,
			"byteLength":2304,
			"byteOffset":76756,
			"target":34962
		},
		{
			"buffer":0,
			"byteLength":1536,
			"byteOffset":79060,
			"target":34962
		},
		{
			"buffer":0,
			"byteLength":672,
			"byteOffset":80596,
			"target":34963
		},
		{
			"buffer":0,
			"byteLength":200,
			"byteOffset":81268
		},
		{
			"buffer":0,
			"byteLength":600,
			"byteOffset":81468
		},
		{
			"buffer":0,
			"byteLength":800,
			"byteOffset":82068
		}
	],
	"buffers":[
		{
			"byteLength":82868,
			"uri":"data:application/octet-stream;base64,"
		}
	]
}
