{
	"asset":{
		"generator":"Khronos glTF Blender I/O v3.6.27",
		"version":"2.0"
	},
	"extensionsUsed":[
		"KHR_materials_emissive_strength"
	],
	"scene":0,
	"scenes":[
		{
			"name":"Scene",
			"nodes":[
				0,
				1
			]
		}
	],
	"nodes":[
		{
			"mesh":0,
			"name":"Circle"
		},
		{
			"mesh":1,
			"name":"Curve",
			"rotation":[
				0.7071068286895752,
				0,
				0,
				0.7071068286895752
			],
			"scale":[
				103.59211730957031,
				103.59211730957031,
				103.59211730957031
			],
			"translation":[
				-0.010292835533618927,
				0.912642240524292,
				0
			]
		}
	],
	"animations":[
		{
			"channels":[
				{
					"sampler":0,
					"target":{
						"node":1,
						"path":"translation"
					}
				},
				{
					"sampler":1,
					"target":{
						"node":1,
						"path":"rotation"
					}
				}
			],
			"name":"CurveAction.001",
			"samplers":[
				{
					"input":12,
					"interpolation":"LINEAR",
					"output":13
				},
				{
					"input":12,
					"interpolation":"LINEAR",
					"output":14
				}
			]
		}
	],
	"materials":[
		{
			"doubleSided":true,
			"name":"Material.018",
			"pbrMetallicRoughness":{
				"baseColorFactor":[
					0.011087574996054173,
					0.011087574996054173,
					0.011087574996054173,
					1
				],
				"metallicFactor":0,
				"roughnessFactor":0.5
			}
		},
		{
			"doubleSided":true,
			"emissiveFactor":[
				0,
				0.3178803622722626,
				1
			],
			"extensions":{
				"KHR_materials_emissive_strength":{
					"emissiveStrength":4.599999904632568
				}
			},
			"name":"Material.019",
			"pbrMetallicRoughness":{
				"baseColorFactor":[
					0,
					0,
					0,
					1
				]
			}
		},
		{
			"doubleSided":true,
			"name":"SVGMat.002",
			"pbrMetallicRoughness":{
				"baseColorFactor":[
					0.039546236395835876,
					0.5088813304901123,
					0.9386857151985168,
					1
				],
				"metallicFactor":0,
				"roughnessFactor":0.4000000059604645
			}
		}
	],
	"meshes":[
		{
			"name":"Circle.007",
			"primitives":[
				{
					"attributes":{
						"POSITION":0,
						"NORMAL":1,
						"TEXCOORD_0":2
					},
					"indices":3,
					"material":0
				},
				{
					"attributes":{
						"POSITION":4,
						"NORMAL":5,
						"TEXCOORD_0":6
					},
					"indices":7,
					"material":1
				}
			]
		},
		{
			"name":"Curve.002",
			"primitives":[
				{
					"attributes":{
						"POSITION":8,
						"NORMAL":9,
						"TEXCOORD_0":10
					},
					"indices":11,
					"material":2
				}
			]
		}
	],
	"accessors":[
		{
			"bufferView":0,
			"componentType":5126,
			"count":896,
			"max":[
				0.9562265276908875,
				0.2911989092826843,
				0.9562265276908875
			],
			"min":[
				-0.9562265276908875,
				0.002089753746986389,
				-0.9562265276908875
			],
			"type":"VEC3"
		},
		{
			"bufferView":1,
			"componentType":5126,
			"count":896,
			"type":"VEC3"
		},
		{
			"bufferView":2,
			"componentType":5126,
			"count":896,
			"type":"VEC2"
		},
		{
			"bufferView":3,
			"componentType":5123,
			"count":2676,
			"type":"SCALAR"
		},
		{
			"bufferView":4,
			"componentType":5126,
			"count":480,
			"max":[
				0.931115984916687,
				0.2911989092826843,
				0.931115984916687
			],
			"min":[
				-0.931115984916687,
				0.07882295548915863,
				-0.931115984916687
			],
			"type":"VEC3"
		},
		{
			"bufferView":5,
			"componentType":5126,
			"count":480,
			"type":"VEC3"
		},
		{
			"bufferView":6,
			"componentType":5126,
			"count":480,
			"type":"VEC2"
		},
		{
			"bufferView":7,
			"componentType":5123,
			"count":1728,
			"type":"SCALAR"
		},
		{
			"bufferView":8,
			"componentType":5126,
			"count":776,
			"max":[
				0.0076201665215194225,
				0,
				0.004571121651679277
			],
			"min":[
				-0.007620145101100206,
				-0.0008608904317952693,
				-0.004571134690195322
			],
			"type":"VEC3"
		},
		{
			"bufferView":9,
			"componentType":5126,
			"count":776,
			"type":"VEC3"
		},
		{
			"bufferView":10,
			"componentType":5126,
			"count":776,
			"type":"VEC2"
		},
		{
			"bufferView":11,
			"componentType":5123,
			"count":2280,
			"type":"SCALAR"
		},
		{
			"bufferView":12,
			"componentType":5126,
			"count":50,
			"max":[
				2.0833333333333335
			],
			"min":[
				0.041666666666666664
			],
			"type":"SCALAR"
		},
		{
			"bufferView":13,
			"componentType":5126,
			"count":50,
			"type":"VEC3"
		},
		{
			"bufferView":14,
			"componentType":5126,
			"count":50,
			"type":"VEC4"
		}
	],
	"bufferViews":[
		{
			"buffer":0,
			"byteLength":10752,
			"byteOffset":0,
			"target":34962
		},
		{
			"buffer":0,
			"byteLength":10752,
			"byteOffset":10752,
			"target":34962
		},
		{
			"buffer":0,
			"byteLength":7168,
			"byteOffset":21504,
			"target":34962
		},
		{
			"buffer":0,
			"byteLength":5352,
			"byteOffset":28672,
			"target":34963
		},
		{
			"buffer":0,
			"byteLength":5760,
			"byteOffset":34024,
			"target":34962
		},
		{
			"buffer":0,
			"byteLength":5760,
			"byteOffset":39784,
			"target":34962
		},
		{
			"buffer":0,
			"byteLength":3840,
			"byteOffset":45544,
			"target":34962
		},
		{
			"buffer":0,
			"byteLength":3456,
			"byteOffset":49384,
			"target":34963
		},
		{
			"buffer":0,
			"byteLength":9312,
			"byteOffset":52840,
			"target":34962
		},
		{
			"buffer":0,
			"byteLength":9312,
			"byteOffset":62152,
			"target":34962
		},
		{
			"buffer":0,
			"byteLength":6208,
			"byteOffset":71464,
			"target":34962
		},
		{
			"buffer":0,
			"byteLength":4560,
			"byteOffset":77672,
			"target":34963
		},
		{
			"buffer":0,
			"byteLength":200,
			"byteOffset":82232
		},
		{
			"buffer":0,
			"byteLength":600,
			"byteOffset":82432
		},
		{
			"buffer":0,
			"byteLength":800,
			"byteOffset":83032
		}
	],
	"buffers":[
		{
			"byteLength":83832,
			"uri":"data:application/octet-stream;base64,"
		}
	]
}
