<svg width="570" height="76" viewBox="0 0 570 76" fill="none" xmlns="http://www.w3.org/2000/svg">
<path d="M20 19H58V37.5V56H20V37.5H0V76H56.5L77 55.5V19.5L57.5 0H1L20 19Z" fill="white"/>
<path fill-rule="evenodd" clip-rule="evenodd" d="M159 19.5L139.5 0H82V56L102 76V57H140V76H159V19.5ZM102 57V37.5V19H121H140V37.5H121L102 57Z" fill="white"/>
<path d="M164 19.5V76H184V57H203L222 37.5H184V19H241V0H183.5L164 19.5Z" fill="white"/>
<path fill-rule="evenodd" clip-rule="evenodd" d="M323 19.5L303.5 0H246V56L266 76V57H304V76H323V19.5ZM266 57V37.5V19H285H304V37.5H285L266 57Z" fill="white"/>
<path d="M328 76V56L373.5 19H328L347.5 0H405V19L359 56H406L385.5 76H328Z" fill="white"/>
<path fill-rule="evenodd" clip-rule="evenodd" d="M488 19.5L468.5 0H411V56L431 76V57H469V76H488V19.5ZM431 57V37.5V19H450H469V37.5H450L431 57Z" fill="white"/>
<path d="M493 76V19.5L512.5 0H570V56.5L551 75.5V19H513V76H493Z" fill="white"/>
</svg>
