{
	"asset":{
		"generator":"Khronos glTF Blender I/O v3.6.27",
		"version":"2.0"
	},
	"extensionsUsed":[
		"KHR_materials_specular",
		"KHR_materials_ior"
	],
	"scene":0,
	"scenes":[
		{
			"name":"Scene",
			"nodes":[
				0,
				1,
				2,
				3,
				4,
				5
			]
		}
	],
	"nodes":[
		{
			"mesh":0,
			"name":"Text",
			"rotation":[
				0,
				0.14751389622688293,
				0,
				0.9890599846839905
			],
			"scale":[
				1.6777204275131226,
				1.6777193546295166,
				1.6777204275131226
			],
			"translation":[
				11.385794639587402,
				0,
				-10.594717025756836
			]
		},
		{
			"mesh":1,
			"name":"Text.001",
			"rotation":[
				0,
				0.14751389622688293,
				0,
				0.9890599846839905
			],
			"scale":[
				1.6777204275131226,
				1.6777193546295166,
				1.6777204275131226
			],
			"translation":[
				13.940774917602539,
				0,
				-10.1415376663208
			]
		},
		{
			"mesh":2,
			"name":"Plane",
			"scale":[
				1.770041823387146,
				1.770041823387146,
				1.770041823387146
			],
			"translation":[
				10.31989574432373,
				0,
				-11.641345977783203
			]
		},
		{
			"mesh":3,
			"name":"Plane.003",
			"rotation":[
				0.7071068286895752,
				0,
				0,
				0.7071068286895752
			],
			"scale":[
				1.770041823387146,
				1.770041823387146,
				1.770041823387146
			],
			"translation":[
				10.31989574432373,
				0.28284400701522827,
				-11.924189567565918
			]
		},
		{
			"mesh":4,
			"name":"Plane.001",
			"rotation":[
				0.7071068286895752,
				0,
				0,
				0.7071068286895752
			],
			"scale":[
				1.770041823387146,
				1.770041823387146,
				1.770041823387146
			],
			"translation":[
				0,
				0.28284400701522827,
				-0.28284400701522827
			]
		},
		{
			"mesh":5,
			"name":"Plane.002",
			"rotation":[
				0.7071068286895752,
				0,
				0,
				0.7071068286895752
			],
			"scale":[
				1.770041823387146,
				1.770041823387146,
				1.770041823387146
			],
			"translation":[
				0,
				0.2828439474105835,
				0.5656879544258118
			]
		}
	],
	"materials":[
		{
			"doubleSided":true,
			"extensions":{
				"KHR_materials_specular":{
					"specularColorFactor":[
						0,
						0,
						0
					]
				},
				"KHR_materials_ior":{
					"ior":1.4500000476837158
				}
			},
			"name":"Material.001",
			"pbrMetallicRoughness":{
				"baseColorFactor":[
					0.014443829655647278,
					0.03433982655405998,
					0.08865559846162796,
					1
				],
				"metallicFactor":0,
				"roughnessFactor":0
			}
		},
		{
			"doubleSided":true,
			"extensions":{
				"KHR_materials_specular":{
					"specularColorFactor":[
						0,
						0,
						0
					]
				},
				"KHR_materials_ior":{
					"ior":1.4500000476837158
				}
			},
			"name":"Material",
			"pbrMetallicRoughness":{
				"baseColorFactor":[
					0.07818740606307983,
					0.1620294153690338,
					0.33245158195495605,
					1
				],
				"metallicFactor":0.5423728823661804
			}
		}
	],
	"meshes":[
		{
			"name":"Text",
			"primitives":[
				{
					"attributes":{
						"POSITION":0,
						"NORMAL":1,
						"TEXCOORD_0":2
					},
					"indices":3
				}
			]
		},
		{
			"name":"Text.001",
			"primitives":[
				{
					"attributes":{
						"POSITION":4,
						"NORMAL":5,
						"TEXCOORD_0":6
					},
					"indices":7
				}
			]
		},
		{
			"name":"Plane",
			"primitives":[
				{
					"attributes":{
						"POSITION":8,
						"NORMAL":9,
						"TEXCOORD_0":10
					},
					"indices":11
				}
			]
		},
		{
			"name":"Plane.011",
			"primitives":[
				{
					"attributes":{
						"POSITION":12,
						"NORMAL":13,
						"TEXCOORD_0":14
					},
					"indices":15
				}
			]
		},
		{
			"name":"Plane.003",
			"primitives":[
				{
					"attributes":{
						"POSITION":16,
						"NORMAL":17,
						"TEXCOORD_0":18
					},
					"indices":19,
					"material":0
				}
			]
		},
		{
			"name":"Plane.004",
			"primitives":[
				{
					"attributes":{
						"POSITION":20,
						"NORMAL":21,
						"TEXCOORD_0":22
					},
					"indices":23,
					"material":1
				}
			]
		}
	],
	"accessors":[
		{
			"bufferView":0,
			"componentType":5126,
			"count":1060,
			"max":[
				5.247799873352051,
				0,
				0.23000000417232513
			],
			"min":[
				0.07000000029802322,
				0,
				-0.6820000410079956
			],
			"type":"VEC3"
		},
		{
			"bufferView":1,
			"componentType":5126,
			"count":1060,
			"type":"VEC3"
		},
		{
			"bufferView":2,
			"componentType":5126,
			"count":1060,
			"type":"VEC2"
		},
		{
			"bufferView":3,
			"componentType":5123,
			"count":3156,
			"type":"SCALAR"
		},
		{
			"bufferView":4,
			"componentType":5126,
			"count":566,
			"max":[
				3.3547000885009766,
				0,
				0.23000000417232513
			],
			"min":[
				-0.11240001022815704,
				0,
				-0.6820000410079956
			],
			"type":"VEC3"
		},
		{
			"bufferView":5,
			"componentType":5126,
			"count":566,
			"type":"VEC3"
		},
		{
			"bufferView":6,
			"componentType":5126,
			"count":566,
			"type":"VEC2"
		},
		{
			"bufferView":7,
			"componentType":5123,
			"count":1668,
			"type":"SCALAR"
		},
		{
			"bufferView":8,
			"componentType":5126,
			"count":45,
			"max":[
				1,
				0,
				1.464280128479004
			],
			"min":[
				-1,
				0,
				-1.4557160139083862
			],
			"type":"VEC3"
		},
		{
			"bufferView":9,
			"componentType":5126,
			"count":45,
			"type":"VEC3"
		},
		{
			"bufferView":10,
			"componentType":5126,
			"count":45,
			"type":"VEC2"
		},
		{
			"bufferView":11,
			"componentType":5123,
			"count":192,
			"type":"SCALAR"
		},
		{
			"bufferView":12,
			"componentType":5126,
			"count":4,
			"max":[
				0.5,
				0,
				0.0042819976806640625
			],
			"min":[
				0,
				0,
				-0.40115460753440857
			],
			"type":"VEC3"
		},
		{
			"bufferView":13,
			"componentType":5126,
			"count":4,
			"type":"VEC3"
		},
		{
			"bufferView":14,
			"componentType":5126,
			"count":4,
			"type":"VEC2"
		},
		{
			"bufferView":15,
			"componentType":5123,
			"count":6,
			"type":"SCALAR"
		},
		{
			"bufferView":16,
			"componentType":5126,
			"count":338,
			"max":[
				1,
				0.4761659502983093,
				0.8432523012161255
			],
			"min":[
				-0.5,
				0,
				-1.4126358032226562
			],
			"type":"VEC3"
		},
		{
			"bufferView":17,
			"componentType":5126,
			"count":338,
			"type":"VEC3"
		},
		{
			"bufferView":18,
			"componentType":5126,
			"count":338,
			"type":"VEC2"
		},
		{
			"bufferView":19,
			"componentType":5123,
			"count":990,
			"type":"SCALAR"
		},
		{
			"bufferView":20,
			"componentType":5126,
			"count":436,
			"max":[
				0.5,
				0.47122764587402344,
				1.4212000370025635
			],
			"min":[
				-1,
				0,
				-0.9308522343635559
			],
			"type":"VEC3"
		},
		{
			"bufferView":21,
			"componentType":5126,
			"count":436,
			"type":"VEC3"
		},
		{
			"bufferView":22,
			"componentType":5126,
			"count":436,
			"type":"VEC2"
		},
		{
			"bufferView":23,
			"componentType":5123,
			"count":1260,
			"type":"SCALAR"
		}
	],
	"bufferViews":[
		{
			"buffer":0,
			"byteLength":12720,
			"byteOffset":0,
			"target":34962
		},
		{
			"buffer":0,
			"byteLength":12720,
			"byteOffset":12720,
			"target":34962
		},
		{
			"buffer":0,
			"byteLength":8480,
			"byteOffset":25440,
			"target":34962
		},
		{
			"buffer":0,
			"byteLength":6312,
			"byteOffset":33920,
			"target":34963
		},
		{
			"buffer":0,
			"byteLength":6792,
			"byteOffset":40232,
			"target":34962
		},
		{
			"buffer":0,
			"byteLength":6792,
			"byteOffset":47024,
			"target":34962
		},
		{
			"buffer":0,
			"byteLength":4528,
			"byteOffset":53816,
			"target":34962
		},
		{
			"buffer":0,
			"byteLength":3336,
			"byteOffset":58344,
			"target":34963
		},
		{
			"buffer":0,
			"byteLength":540,
			"byteOffset":61680,
			"target":34962
		},
		{
			"buffer":0,
			"byteLength":540,
			"byteOffset":62220,
			"target":34962
		},
		{
			"buffer":0,
			"byteLength":360,
			"byteOffset":62760,
			"target":34962
		},
		{
			"buffer":0,
			"byteLength":384,
			"byteOffset":63120,
			"target":34963
		},
		{
			"buffer":0,
			"byteLength":48,
			"byteOffset":63504,
			"target":34962
		},
		{
			"buffer":0,
			"byteLength":48,
			"byteOffset":63552,
			"target":34962
		},
		{
			"buffer":0,
			"byteLength":32,
			"byteOffset":63600,
			"target":34962
		},
		{
			"buffer":0,
			"byteLength":12,
			"byteOffset":63632,
			"target":34963
		},
		{
			"buffer":0,
			"byteLength":4056,
			"byteOffset":63644,
			"target":34962
		},
		{
			"buffer":0,
			"byteLength":4056,
			"byteOffset":67700,
			"target":34962
		},
		{
			"buffer":0,
			"byteLength":2704,
			"byteOffset":71756,
			"target":34962
		},
		{
			"buffer":0,
			"byteLength":1980,
			"byteOffset":74460,
			"target":34963
		},
		{
			"buffer":0,
			"byteLength":5232,
			"byteOffset":76440,
			"target":34962
		},
		{
			"buffer":0,
			"byteLength":5232,
			"byteOffset":81672,
			"target":34962
		},
		{
			"buffer":0,
			"byteLength":3488,
			"byteOffset":86904,
			"target":34962
		},
		{
			"buffer":0,
			"byteLength":2520,
			"byteOffset":90392,
			"target":34963
		}
	],
	"buffers":[
		{
			"byteLength":92912,
			"uri":"data:application/octet-stream;base64,"
		}
	]
}
