<svg width="218" height="218" viewBox="0 0 218 218" fill="none" xmlns="http://www.w3.org/2000/svg">
<path d="M72.6667 171.931C83.7134 178.309 96.2444 181.667 109 181.667C121.756 181.667 134.287 178.309 145.333 171.931C156.38 165.553 165.553 156.38 171.931 145.333C178.309 134.287 181.667 121.756 181.667 109C181.667 96.2443 178.309 83.7134 171.931 72.6667C165.553 61.6199 156.38 52.4466 145.333 46.0688C134.287 39.691 121.756 36.3333 109 36.3333C96.2444 36.3333 83.7134 39.691 72.6667 46.0688" stroke="#E0C49C" stroke-width="5"/>
<path d="M18.1667 109L16.2145 107.438L14.9651 109L16.2145 110.562L18.1667 109ZM99.9167 111.5C101.297 111.5 102.417 110.381 102.417 109C102.417 107.619 101.297 106.5 99.9167 106.5V111.5ZM52.5478 62.0216L16.2145 107.438L20.1188 110.562L56.4522 65.1451L52.5478 62.0216ZM16.2145 110.562L52.5478 155.978L56.4522 152.855L20.1188 107.438L16.2145 110.562ZM18.1667 111.5H99.9167V106.5H18.1667V111.5Z" fill="#E0C49C"/>
</svg>
